<svg xmlns="http://www.w3.org/2000/svg" width="51" height="51" viewBox="0 0 51 51"><g transform="translate(-50.95 -50.95)"><path d="M76.45,101.95a25.5,25.5,0,1,1,25.5-25.5A25.529,25.529,0,0,1,76.45,101.95Zm0-47.772A22.272,22.272,0,1,0,98.722,76.45,22.3,22.3,0,0,0,76.45,54.178Z" transform="translate(0 0)" fill="#fff"/><path d="M239.014,146.361a1.614,1.614,0,0,1-1.614-1.614V122.363a1.614,1.614,0,1,1,3.228,0v22.383A1.614,1.614,0,0,1,239.014,146.361Z" transform="translate(-162.564 -60.857)" fill="#fff"/><circle cx="1.922" cy="1.922" r="1.922" transform="translate(74.528 87.551)" fill="#fff"/></g></svg>