<svg xmlns="http://www.w3.org/2000/svg" width="42" height="42" viewBox="0 0 42 42"><g transform="translate(-224.249 -134.18)"><circle cx="20" cy="20" r="20" transform="translate(225.249 135.18)" fill="none" stroke="#fff" stroke-linecap="round" stroke-linejoin="round" stroke-width="2"/><line y2="1.881" transform="translate(245.118 142.967)" fill="none" stroke="#fff" stroke-linecap="round" stroke-linejoin="round" stroke-width="2"/><path d="M344.023,265.138c0,.988.6,4.35,6.068,4.35" transform="translate(-104.875 -114.751)" fill="none" stroke="#fff" stroke-linecap="round" stroke-linejoin="round" stroke-width="2"/><path d="M340.06,307.284s.091,5.44,6.462,5.44c5.866,0,6.406-4.328,6.406-5.6,0-1.465-.926-4.82-6.391-4.82" transform="translate(-101.376 -147.571)" fill="none" stroke="#fff" stroke-linecap="round" stroke-linejoin="round" stroke-width="2"/><path d="M401.794,307.128c0-1.465-.926-4.82-6.391-4.82" transform="translate(-150.243 -147.571)" fill="none" stroke="#fff" stroke-linecap="round" stroke-linejoin="round" stroke-width="2"/><line y2="22.012" transform="translate(245.118 145.938)" fill="none" stroke="#fff" stroke-linecap="round" stroke-linejoin="round" stroke-width="2"/><path d="M356.012,226.136s.464-4.154-5.907-4.154c-5.866,0-6.082,3.906-6.082,5.05" transform="translate(-104.875 -76.645)" fill="none" stroke="#fff" stroke-linecap="round" stroke-linejoin="round" stroke-width="2"/><path d="M340.06,343.656s.091,5.44,6.462,5.44c5.866,0,6.406-4.328,6.406-5.6" transform="translate(-101.376 -183.943)" fill="none" stroke="#fff" stroke-linecap="round" stroke-linejoin="round" stroke-width="2"/></g></svg>