<svg xmlns="http://www.w3.org/2000/svg" width="47.999" height="46.82" viewBox="0 0 47.999 46.82"><g transform="translate(-596.435 -27.214)"><path d="M614.638,47.153a19.964,19.964,0,0,0-5.687,2.4h0l-5.55-.971,1.312,4.68a13.876,13.876,0,0,0-2.812,5.727h-2.8a1.67,1.67,0,0,0-1.665,1.665V68.7a1.67,1.67,0,0,0,1.665,1.665h4.857c.254,0,3.161,2.422,4.718,3.432v5.588a1.67,1.67,0,0,0,1.665,1.665h3.052a1.67,1.67,0,0,0,1.665-1.665V76.47a22.2,22.2,0,0,0,8.6.25v2.665a1.67,1.67,0,0,0,1.665,1.665h3.053a1.67,1.67,0,0,0,1.665-1.665V74.538c5.013-2.726,8.326-7.43,8.326-12.777,0-7.233-6.061-13.291-14.2-14.865" transform="translate(0 -8.015)" fill="none" stroke="#fff" stroke-linecap="round" stroke-linejoin="round" stroke-width="2"/><path d="M624.29,56.856h0a11.991,11.991,0,0,1,14.223,0h0" transform="translate(-11.522 -11.287)" fill="none" stroke="#fff" stroke-linecap="round" stroke-linejoin="round" stroke-width="2"/><circle cx="0.347" cy="0.347" r="0.347" transform="translate(607.981 50.971)" fill="none" stroke="#fff" stroke-linecap="round" stroke-linejoin="round" stroke-width="2"/><circle cx="6.452" cy="6.452" r="6.452" transform="translate(612.837 28.214)" fill="none" stroke="#fff" stroke-linecap="round" stroke-linejoin="round" stroke-width="2"/><path d="M674.35,64.305a4.721,4.721,0,0,1-4.856,4.579" transform="translate(-30.917 -15.485)" fill="none" stroke="#fff" stroke-linecap="round" stroke-linejoin="round" stroke-width="2"/></g></svg>