<svg xmlns="http://www.w3.org/2000/svg" width="365" height="66.187" viewBox="0 0 365 66.187">
  <g id="Group_401" data-name="Group 401" transform="translate(-54)">
    <g id="Group_399" data-name="Group 399" transform="translate(54)">
      <path id="Path_315" data-name="Path 315" d="M159.094-76.408a.861.861,0,0,1,.918-.921c.857,0,2.173.921,2.9,2.767-.27,0-.656.078-.931.078-1.566,0-2.887-.753-2.887-1.924m-95.126,0a.855.855,0,0,1,.919-.921c.847,0,2.1.921,2.825,2.767-2.431,0-3.745-.527-3.745-1.846m18.349-9.538c0-9.854,1.911-11.381,2.5-11.381,1.057,0,1.178.669,1.178,4.441a22.64,22.64,0,0,1-3.677,11.772ZM149.1-76.213a11.508,11.508,0,0,0-2.047,6.745c0,5.559,3.155,10.867,9.273,10.867,5.927,0,10.072-4.706,10.072-11.276a13.4,13.4,0,0,0-.2-2.953,16.134,16.134,0,0,0,3.485-2.259,3.584,3.584,0,0,1,1.845-.939c.588,0,.857.475.857,1.333V-61.72c0,2.126.66,3.119,2.292,3.119a3.593,3.593,0,0,0,3.164-2.32c2.175-4.575,5.329-10.654,6.706-12.975.334-.527.6-.927.784-.927.267,0,.4.207.4,1.048v10.336c0,2.914,1.317,4.838,4.207,4.838,3.025,0,4.539-2.922,7.184-7.418a1.617,1.617,0,0,0,.186-.66.967.967,0,0,0-1.043-.927c-.6,0-.929.594-2.9,2.775-.4.415-.793.988-1.514.988-.259,0-.461-.317-.461-.72V-76.156c0-3.108-1.387-4.363-3.16-4.363-1.445,0-2.633.592-3.882,2.445a118.035,118.035,0,0,0-5.79,10.4c-.137.274-.326.665-.457.665s-.19-.2-.19-.665v-8.48c0-2.443-.658-4.363-3.236-4.363-2.7,0-4.068,1.854-6.048,3.24a19.916,19.916,0,0,1-3.218,1.987c-1.315-3.373-3.745-5.088-5.795-5.03a3.305,3.305,0,0,0-3.49,3.443,4.535,4.535,0,0,0,3.089,4.365,8.029,8.029,0,0,0,3.233.478,4.187,4.187,0,0,0,1.04-.077,12.631,12.631,0,0,1,.079,2.329c0,3.24-1.9,6.478-5.457,6.478-3.695,0-5.856-3.576-5.856-7.677a11.408,11.408,0,0,1,2.423-7.471c.6-.667,1.058-1.069,1.058-1.675,0-.314-.457-.39-.853-.39a16.934,16.934,0,0,0-7.169,2.1,43.63,43.63,0,0,0-7.9,5.71c-1.18-2.653-2.627-4.967-3.355-6.766-.261-.731-.457-1.573-.982-1.573-.467,0-.667.461-.991,1.378-1.185,3.508-7.5,13.779-8.88,15.166-.13.194-.326.4-.385.4-.15,0-.22-.063-.22-.466V-76.156c0-3.108-1.248-4.363-2.953-4.363-1.444,0-2.7.592-3.876,2.445-2.168,3.324-4.807,8.152-6.058,10.532-.2.408-.393.53-.466.53s-.12-.26-.12-.665v-8.48c0-3.108-1.253-4.363-2.965-4.363a4.3,4.3,0,0,0-3.947,2.445c-2.766,4.71-7.366,11.923-8.222,13.115a1.21,1.21,0,0,1-.392.395c-.135,0-.206-.132-.206-.461V-76.156c0-3.108-1.247-4.363-2.955-4.363-2.367,0-3.676,2.189-4.546,3.578-1.185,1.914-2.758,4.5-4,6.885-.861,1.595-1.585,3.045-1.851,3.045-.126,0-.126-.594-.126-1.724V-77.6A24.82,24.82,0,0,0,89.032-94.15c0-3.581-1.575-5.564-4.013-5.564-4.549,0-8.018,7.15-8.018,15.627v6.88a18.213,18.213,0,0,1-6.523,2.458c-1.252-3.7-3.89-5.631-5.982-5.573a3.31,3.31,0,0,0-3.489,3.443c0,3.516,3.42,4.971,6.438,4.971H68.3a10.985,10.985,0,0,1,.134,2.124c0,3.24-1.9,6.478-5.449,6.478-3.689,0-5.862-3.576-5.862-7.677a11.382,11.382,0,0,1,2.425-7.471A3.5,3.5,0,0,0,60.6-80.129c0-.314-.461-.39-.856-.39-2.5,0-8.022,3.388-14.6,10a144.329,144.329,0,0,1-1.247-15.5,57.44,57.44,0,0,1,1.379-11.777,14.251,14.251,0,0,0,.206-1.777c0-.533-.275-.8-.991-.8-5.335,0-17.043,8.532-17.043,21.313,0,9.065,3.293,13.431,9.011,19.055-3.47,5.631-6.249,12.316-6.249,18.282,0,4.29.994,7.533,4.142,7.533,6.579,0,11.512-13.762,11.512-23.951q0-4.569-.382-9.132c2.423-2.6,6.177-6.092,7.095-6.42a15.674,15.674,0,0,0-.655,4.223c0,5.559,3.163,10.867,9.273,10.867,5.728,0,10.064-4.706,10.064-11.276,0-.846-.064-1.576-.126-2.369A17.066,17.066,0,0,0,77-74.287v13.295A2.191,2.191,0,0,0,79.289-58.6c1.521,0,2.312-1.069,3.421-3.5.926-1.994,3.42-6.563,4.937-9.279,1.187-2.125,1.85-3.5,2.371-3.5.132,0,.271.32.271,1.108v11.328c0,3.044,1.576,3.845,2.949,3.845a3.636,3.636,0,0,0,3.028-1.924c3.425-4.9,7.049-10.719,8.484-13.25.271-.444.591-.788.857-.788s.395.141.395.989V-61.72c0,2.126.661,3.119,2.308,3.119a3.482,3.482,0,0,0,3.08-2.32c2.181-4.575,5.4-10.6,6.788-12.975.324-.527.656-.988.853-.988.274,0,.326.32.326,1.191v11.245c0,3.044,1.58,3.845,2.973,3.845,1.827,0,3.023-1.326,4.207-2.846,2.158-2.858,5.319-7.938,7.23-11.2a28.2,28.2,0,0,1,1.977,3.717c-1.576,1.916-3.159,4.1-3.159,6.413A3.632,3.632,0,0,0,136.07-58.6c3.028,0,5.785-2.922,5.785-6.95a14.107,14.107,0,0,0-1.049-4.832c2.7-2.648,5.921-5.233,8.3-5.831M40.73-61.781a69.436,69.436,0,0,1,.994,9.656c0,6.35-2.1,13.76-5.72,13.7-1.393,0-2.569-1.4-2.631-3.833-.131-7.946,3.615-14.7,7.356-19.524M136.789-66.3a8.818,8.818,0,0,1,.6,2.991c0,1.062-.4,2.121-1.132,2.121-.513,0-1.039-.6-1.039-1.52a7.906,7.906,0,0,1,1.571-3.591M43.115-97.862c0,.407-.931,2.256-2.112,5.568a41.858,41.858,0,0,0-2.436,14.221c0,3.511.857,8.152,1.584,12.849l-2.1,2.85c-3.364-4.108-5.466-8.741-5.466-16.685,0-11.252,6.775-19.05,10.26-19.05.206,0,.274.06.274.248" transform="translate(-27.449 100.376)" fill="#c8102e"/>
      <path id="Path_316" data-name="Path 316" d="M317.726-76.408a.853.853,0,0,1,.922-.921c.842,0,2.168.921,2.88,2.767-.254,0-.643.078-.918.078-1.573,0-2.884-.753-2.884-1.924m-95.14,0a.863.863,0,0,1,.922-.921c.852,0,2.117.921,2.824,2.767-2.43,0-3.746-.527-3.746-1.846m18.363-9.538c0-9.856,1.894-11.381,2.5-11.381,1.053,0,1.189.668,1.189,4.441a22.69,22.69,0,0,1-3.685,11.772ZM199.365-61.781a70.7,70.7,0,0,1,.988,9.656c0,6.351-2.093,13.76-5.721,13.7-1.388,0-2.562-1.4-2.636-3.834-.134-7.944,3.631-14.7,7.369-19.524M295.423-66.3a8.668,8.668,0,0,1,.591,2.992c0,1.059-.4,2.12-1.122,2.12-.516,0-1.063-.6-1.063-1.521a7.842,7.842,0,0,1,1.594-3.591m-93.7-31.565c0,.407-.911,2.256-2.1,5.568a42,42,0,0,0-2.438,14.221c0,3.511.876,8.152,1.586,12.85l-2.1,2.849c-3.354-4.11-5.461-8.741-5.461-16.685,0-11.252,6.773-19.05,10.26-19.05.192,0,.246.06.246.248m-10.966,33.1A38.607,38.607,0,0,0,195.1-60c-3.481,5.631-6.254,12.315-6.254,18.281,0,4.29.99,7.533,4.15,7.533,6.577,0,11.512-13.762,11.512-23.951,0-3.046-.125-6.093-.4-9.132,2.436-2.6,6.176-6.092,7.1-6.42a15.886,15.886,0,0,0-.663,4.223c0,5.559,3.168,10.866,9.289,10.866,5.725,0,10.059-4.7,10.059-11.274a21.672,21.672,0,0,0-.136-2.369,16.876,16.876,0,0,0,5.865-2.042v13.295a2.195,2.195,0,0,0,2.285,2.39c1.531,0,2.325-1.068,3.44-3.5.916-2,3.41-6.565,4.944-9.28,1.173-2.126,1.831-3.5,2.363-3.5.134,0,.252.32.252,1.108v11.328c0,3.045,1.575,3.844,2.964,3.844,1.319,0,2.168-.725,3.032-1.923,3.413-4.9,7.039-10.719,8.485-13.25.257-.444.595-.788.848-.788s.4.141.4.989v11.854c0,2.126.646,3.118,2.293,3.118a3.491,3.491,0,0,0,3.092-2.318c2.178-4.575,5.4-10.6,6.775-12.975.331-.527.671-.988.873-.988.247,0,.326.32.326,1.191v11.245c0,3.045,1.564,3.844,2.943,3.844,1.851,0,3.038-1.324,4.217-2.845,2.176-2.858,5.33-7.937,7.246-11.2a30.871,30.871,0,0,1,1.975,3.718c-1.6,1.915-3.158,4.1-3.158,6.411a3.621,3.621,0,0,0,3.475,3.913c3.028,0,5.783-2.92,5.783-6.949a14.108,14.108,0,0,0-1.049-4.832c2.694-2.648,5.928-5.233,8.3-5.832a11.522,11.522,0,0,0-2.04,6.747c0,5.559,3.154,10.866,9.268,10.866,5.931,0,10.06-4.7,10.06-11.274a14.017,14.017,0,0,0-.186-2.954,15.953,15.953,0,0,0,3.489-2.258,3.531,3.531,0,0,1,1.836-.939c.6,0,.867.475.867,1.332v12.976c0,2.126.651,3.118,2.3,3.118a3.6,3.6,0,0,0,3.162-2.318c2.157-4.575,5.319-10.654,6.7-12.975.341-.527.595-.927.8-.927.265,0,.4.206.4,1.048v10.336c0,2.914,1.308,4.837,4.209,4.837,3.023,0,4.541-2.92,7.181-7.417a1.659,1.659,0,0,0,.184-.66.975.975,0,0,0-1.052-.927c-.593,0-.929.594-2.9,2.775-.394.415-.788.986-1.514.986-.269,0-.451-.315-.451-.719V-76.155c0-3.11-1.393-4.363-3.169-4.363-1.444,0-2.624.592-3.881,2.445a112.164,112.164,0,0,0-5.777,10.4c-.136.273-.326.665-.475.665s-.186-.2-.186-.665v-8.48c0-2.444-.663-4.363-3.229-4.363-2.7,0-4.078,1.854-6.052,3.24a20.2,20.2,0,0,1-3.228,1.985c-1.308-3.372-3.752-5.086-5.781-5.029a3.306,3.306,0,0,0-3.495,3.443,4.533,4.533,0,0,0,3.08,4.366,8.087,8.087,0,0,0,3.243.478,4.327,4.327,0,0,0,1.048-.077,13.336,13.336,0,0,1,.065,2.326c0,3.242-1.912,6.482-5.47,6.482-3.679,0-5.842-3.578-5.842-7.677a11.427,11.427,0,0,1,2.425-7.472c.6-.667,1.057-1.072,1.057-1.675,0-.314-.461-.39-.847-.39a17,17,0,0,0-7.174,2.1,43.828,43.828,0,0,0-7.9,5.71c-1.18-2.653-2.616-4.967-3.351-6.764-.276-.735-.461-1.575-1-1.575-.453,0-.653.461-.977,1.379-1.188,3.508-7.5,13.778-8.876,15.166-.141.194-.331.4-.406.4-.125,0-.194-.06-.194-.464V-76.155c0-3.11-1.249-4.363-2.959-4.363-1.452,0-2.691.592-3.89,2.445-2.171,3.325-4.8,8.152-6.048,10.532-.192.408-.386.53-.455.53s-.137-.26-.137-.665v-8.48c0-3.11-1.242-4.363-2.959-4.363a4.279,4.279,0,0,0-3.943,2.445c-2.779,4.71-7.376,11.923-8.225,13.114a1.072,1.072,0,0,1-.4.4c-.126,0-.2-.133-.2-.461V-76.155c0-3.11-1.239-4.363-2.96-4.363-2.363,0-3.684,2.189-4.541,3.578-1.18,1.911-2.753,4.5-4.011,6.885-.853,1.595-1.57,3.045-1.832,3.045-.134,0-.134-.594-.134-1.724V-77.6a24.832,24.832,0,0,0,6.709-16.555c0-3.581-1.583-5.564-4.017-5.564-4.542,0-8.021,7.15-8.021,15.629v6.879a18.317,18.317,0,0,1-6.523,2.459c-1.237-3.706-3.881-5.631-5.971-5.574a3.308,3.308,0,0,0-3.5,3.443c0,3.516,3.416,4.971,6.444,4.971h.863a12.35,12.35,0,0,1,.119,2.121c0,3.242-1.9,6.482-5.451,6.482-3.685,0-5.846-3.578-5.846-7.677a11.455,11.455,0,0,1,2.423-7.472,3.456,3.456,0,0,0,1.048-1.675c0-.314-.451-.39-.852-.39-2.5,0-8.027,3.389-14.608,10a142.741,142.741,0,0,1-1.245-15.5,57.7,57.7,0,0,1,1.383-11.777,13.951,13.951,0,0,0,.2-1.777c0-.533-.275-.806-.976-.806-5.339,0-17.047,8.535-17.047,21.316a22.279,22.279,0,0,0,3.083,12.177,9.828,9.828,0,0,0-1.837-.128,24.516,24.516,0,0,0-5.325.793v-1.323c0-2.841-.661-6.745-1.854-8.074a.726.726,0,0,0-.517-.2,4.475,4.475,0,0,0-1.91.653c-.793.417-1.575.807-1.575,1.066a.977.977,0,0,0,.194.592,9.918,9.918,0,0,1,2.163,5.1,10.693,10.693,0,0,0-8.132-3.251c-3.956,0-5.143,1.778-5.143,3.584,0,3.441,4.538,5.157,10.266,5.157a15.83,15.83,0,0,0,3.413-.464c0,1.059.135,1.99.135,2.79,0,1.122.192,1.985.919,1.985,1.117,0,1.781-2.256,1.9-5.5a25.23,25.23,0,0,1,5.935-.988,17.068,17.068,0,0,1,2.957.323m-12.963-.661a21.7,21.7,0,0,1-2.959.132c-2.563,0-4.461-1-4.461-2.439,0-.934.456-1.469,1.76-1.469,2.108,0,3.817,1.469,5.66,3.776" transform="translate(9.053 100.375)" fill="#c8102e"/>
    </g>
  </g>
</svg>
