<svg xmlns="http://www.w3.org/2000/svg" width="46.496" height="46.496" viewBox="0 0 46.496 46.496"><g transform="translate(-472.5 -1528.316)"><g transform="translate(472.5 1528.316)"><g fill="none"><path d="M23.248,0A23.248,23.248,0,1,1,0,23.248,23.248,23.248,0,0,1,23.248,0Z" stroke="none"/><path d="M 23.248046875 2.999996185302734 C 17.83959770202637 2.999996185302734 12.75486755371094 5.106166839599609 8.930515289306641 8.930515289306641 C 5.106166839599609 12.75486755371094 2.999996185302734 17.83959770202637 2.999996185302734 23.248046875 C 2.999996185302734 28.65649604797363 5.106166839599609 33.74122619628906 8.930515289306641 37.56557464599609 C 12.75486755371094 41.38992691040039 17.83959770202637 43.49609756469727 23.248046875 43.49609756469727 C 28.65649604797363 43.49609756469727 33.74122619628906 41.38992691040039 37.56557464599609 37.56557464599609 C 41.38992691040039 33.74122619628906 43.49609756469727 28.65649604797363 43.49609756469727 23.248046875 C 43.49609756469727 17.83959770202637 41.38992691040039 12.75486755371094 37.56557464599609 8.930515289306641 C 33.74122619628906 5.106166839599609 28.65649604797363 2.999996185302734 23.248046875 2.999996185302734 M 23.248046875 -3.814697265625e-06 C 36.08758544921875 -3.814697265625e-06 46.49609756469727 10.40850830078125 46.49609756469727 23.248046875 C 46.49609756469727 36.08758544921875 36.08758544921875 46.49609756469727 23.248046875 46.49609756469727 C 10.40850830078125 46.49609756469727 -3.814697265625e-06 36.08758544921875 -3.814697265625e-06 23.248046875 C -3.814697265625e-06 10.40850830078125 10.40850830078125 -3.814697265625e-06 23.248046875 -3.814697265625e-06 Z" stroke="none" fill="#c72944"/></g><text transform="translate(17.496 31)" fill="#b9414a" font-size="22" font-family="Helvetica-Bold, Helvetica" font-weight="700"><tspan x="0" y="0">2</tspan></text></g></g></svg>