<svg xmlns="http://www.w3.org/2000/svg" width="34.899" height="50.772" viewBox="0 0 34.899 50.772">
  <g id="Group_610" data-name="Group 610" transform="translate(-64.599 -3.212)">
    <g id="Group_581" data-name="Group 581" transform="translate(64.599 3.212)">
      <g id="Group_578" data-name="Group 578" transform="translate(0 6.35)">
        <path id="Path_358" data-name="Path 358" d="M97.922,96.951H66.175A1.576,1.576,0,0,1,64.6,95.375V54.1a1.576,1.576,0,0,1,1.576-1.576h6.349a1.576,1.576,0,1,1,0,3.152H67.751V93.8h28.6V55.68H91.573a1.576,1.576,0,1,1,0-3.152h6.349A1.576,1.576,0,0,1,99.5,54.1V95.375A1.576,1.576,0,0,1,97.922,96.951Z" transform="translate(-64.599 -52.528)" fill="#c00020"/>
      </g>
      <g id="Group_580" data-name="Group 580" transform="translate(6.349 0)">
        <g id="Group_579" data-name="Group 579">
          <path id="Path_359" data-name="Path 359" d="M134.537,15.888H115.489a1.576,1.576,0,0,1-1.576-1.576V11.138a4.756,4.756,0,0,1,4.75-4.751h1.868a4.751,4.751,0,0,1,8.964,0h1.867a4.756,4.756,0,0,1,4.751,4.751v3.174A1.576,1.576,0,0,1,134.537,15.888Zm-17.472-3.152h15.9v-1.6a1.6,1.6,0,0,0-1.6-1.6h-3.175a1.576,1.576,0,0,1-1.576-1.576,1.6,1.6,0,1,0-3.2,0,1.576,1.576,0,0,1-1.576,1.576h-3.175a1.6,1.6,0,0,0-1.6,1.6Zm12.7-4.773h0Z" transform="translate(-113.913 -3.212)" fill="#001d9c"/>
        </g>
      </g>
    </g>
    <g id="Group_584" data-name="Group 584" transform="translate(70.61 18.874)">
      <g id="Group_582" data-name="Group 582" transform="translate(0)">
        <path id="Path_360" data-name="Path 360" d="M115.088,136.93a1.576,1.576,0,0,1-1.311-.7l-2.231-3.347a1.576,1.576,0,0,1,2.622-1.748l.725,1.087,3.248-6.5a1.576,1.576,0,0,1,2.819,1.41l-4.462,8.924a1.576,1.576,0,0,1-1.312.868C115.154,136.929,115.121,136.93,115.088,136.93Z" transform="translate(-111.281 -124.854)" fill="#b9008f"/>
      </g>
      <g id="Group_583" data-name="Group 583" transform="translate(10.604 5.806)">
        <path id="Path_361" data-name="Path 361" d="M204.336,173.1h-9.122a1.576,1.576,0,0,1,0-3.152h9.122a1.576,1.576,0,0,1,0,3.152Z" transform="translate(-193.638 -169.95)" fill="#b9008f"/>
      </g>
    </g>
    <g id="Group_587" data-name="Group 587" transform="translate(70.61 34.283)">
      <g id="Group_585" data-name="Group 585" transform="translate(0)">
        <path id="Path_362" data-name="Path 362" d="M115.088,256.61a1.576,1.576,0,0,1-1.311-.7l-2.231-3.347a1.576,1.576,0,0,1,2.622-1.748l.725,1.087,3.248-6.5a1.576,1.576,0,0,1,2.819,1.41l-4.462,8.924a1.576,1.576,0,0,1-1.312.868C115.154,256.609,115.121,256.61,115.088,256.61Z" transform="translate(-111.281 -244.533)" fill="#b9008f"/>
      </g>
      <g id="Group_586" data-name="Group 586" transform="translate(10.604 5.806)">
        <path id="Path_363" data-name="Path 363" d="M204.336,292.782h-9.122a1.576,1.576,0,0,1,0-3.152h9.122a1.576,1.576,0,0,1,0,3.152Z" transform="translate(-193.638 -289.63)" fill="#b9008f"/>
      </g>
    </g>
  </g>
</svg>
