<svg id="Group_658" data-name="Group 658" xmlns="http://www.w3.org/2000/svg" xmlns:xlink="http://www.w3.org/1999/xlink" width="60" height="59.035" viewBox="0 0 60 59.035">
  <defs>
    <clipPath id="clip-path">
      <rect id="Rectangle_315" data-name="Rectangle 315" width="60" height="59.035" fill="none"/>
    </clipPath>
  </defs>
  <g id="Group_657" data-name="Group 657" clip-path="url(#clip-path)">
    <path id="Path_468" data-name="Path 468" d="M36.787,34.5a2.594,2.594,0,0,1-1.872-.855,4.2,4.2,0,0,1-.841-3.319,19.11,19.11,0,0,0-.741-6.713A2.866,2.866,0,0,0,30.65,21.9,2.345,2.345,0,0,0,28.1,23.531a.388.388,0,0,1-.012.041,22.056,22.056,0,0,0-.71,6.068c-.012.771-.024,1.5-.087,2.142A2.768,2.768,0,0,1,24.622,34.5c-1.664,0-2.287-.736-3.222-2.3-.847-1.424-1.852-4.244-1.845-9.609a12.962,12.962,0,0,0-1.939-7.355l-.014-.025-.145-.263a11.9,11.9,0,0,1-1.791-6.8c0-.1,0-.193,0-.29s0-.172,0-.263c0-.015,0-.03,0-.044a6.871,6.871,0,0,1,3.062-5.873l.01-.007A10.6,10.6,0,0,1,23.452.085,1.212,1.212,0,0,1,23.58.077L26.2.045c.038,0,.077,0,.115,0a13.589,13.589,0,0,1,4.387,1.035A14.3,14.3,0,0,1,36.316,0a11.455,11.455,0,0,1,6.343,1.675l.011.008a6.882,6.882,0,0,1,3.064,5.871c0,.008,0,.017,0,.026,0,.074,0,.146.006.217,0,.119.007.234.007.347,0,0,0,.008,0,.012a11.968,11.968,0,0,1-1.794,6.792l-.145.263-.014.025a12.981,12.981,0,0,0-1.939,7.349c0,5.376-1,8.194-1.846,9.612a6,6,0,0,1-1.4,1.756,2.846,2.846,0,0,1-1.823.545Zm.047-2.508h0Zm-.047,0h0Zm-16.992-18A15.4,15.4,0,0,1,22.066,22.6c-.007,5.039.931,7.371,1.49,8.312a4.071,4.071,0,0,0,.743,1.053,1.442,1.442,0,0,0,.323.02h.016a.811.811,0,0,0,.15-.407c0-.011,0-.021,0-.032.054-.541.064-1.193.076-1.948a24.174,24.174,0,0,1,.808-6.723,4.879,4.879,0,0,1,5.089-3.482,5.366,5.366,0,0,1,4.952,3.422l.012.038a21.442,21.442,0,0,1,.847,7.688c-.088,1.006.128,1.4.249,1.444.228,0,.258-.025.276-.039a4.429,4.429,0,0,0,.754-1.04c.556-.935,1.493-3.264,1.49-8.315a15.415,15.415,0,0,1,2.271-8.605l.14-.255a9.659,9.659,0,0,0,1.481-5.595c0-.086,0-.174-.006-.265s0-.158-.006-.239A4.439,4.439,0,0,0,41.25,3.754a9.057,9.057,0,0,0-4.9-1.243H36.28a11.806,11.806,0,0,0-4.546.863L31.22,3.6a1.256,1.256,0,0,1-1.023,0l-.514-.228a11.147,11.147,0,0,0-3.508-.821l-2.5.03a8.07,8.07,0,0,0-3.519,1.167,4.426,4.426,0,0,0-1.973,3.871c0,.1,0,.2,0,.3,0,.077,0,.152,0,.224a9.583,9.583,0,0,0,1.477,5.588ZM33.34,23.628h0Z" transform="translate(-12.844 0)" fill="#001d9c"/>
    <path id="Path_469" data-name="Path 469" d="M96.959,11.055a1.25,1.25,0,0,1-.588-.147L92.861,9.044a1.255,1.255,0,1,1,1.177-2.217l3.511,1.865a1.255,1.255,0,0,1-.59,2.364" transform="translate(-75.586 -5.476)" fill="#001d9c"/>
    <path id="Path_470" data-name="Path 470" d="M80.48,54.112H73.1a1.255,1.255,0,0,1-1.255-1.255V45.474A1.255,1.255,0,0,1,73.1,44.219H80.48a1.255,1.255,0,0,1,1.255,1.255v7.382a1.255,1.255,0,0,1-1.255,1.255M74.352,51.6h4.873V46.73H74.352Z" transform="translate(-58.9 -36.254)" fill="#b9008f"/>
    <path id="Path_471" data-name="Path 471" d="M14.2,67.216H1.255a1.255,1.255,0,1,1,0-2.511H14.2a1.255,1.255,0,1,1,0,2.511" transform="translate(0 -53.049)" fill="#c00020"/>
    <path id="Path_472" data-name="Path 472" d="M126.977,67.216H114.086a1.255,1.255,0,1,1,0-2.511h12.891a1.255,1.255,0,1,1,0,2.511" transform="translate(-92.506 -53.049)" fill="#c00020"/>
    <path id="Path_473" data-name="Path 473" d="M191.588,242.916h-2.057a5.983,5.983,0,0,1,0-11.966h5.647v-5.471a1.2,1.2,0,0,1,2.393,0v5.471h9.906a1.2,1.2,0,0,1,0,2.393h-9.906v3.59a5.99,5.99,0,0,1-5.983,5.983m-2.057-9.573a3.59,3.59,0,0,0,0,7.18h2.057a3.594,3.594,0,0,0,3.59-3.59v-3.59Z" transform="translate(-150.485 -183.881)" fill="#001d9c"/>
    <path id="Path_474" data-name="Path 474" d="M209.564,137.719a9.878,9.878,0,0,1-9.89-9.883v-10.86a1.2,1.2,0,0,1,1.2-1.2h2.9a1.2,1.2,0,1,1,0,2.393h-1.705v9.663a7.5,7.5,0,0,0,12.8,5.3l.063-.063a7.448,7.448,0,0,0,2.2-5.3v-9.6H215.38a1.2,1.2,0,1,1,0-2.393h2.941a1.2,1.2,0,0,1,1.2,1.2v10.8a9.825,9.825,0,0,1-2.9,6.993l-.063.063a9.861,9.861,0,0,1-6.993,2.89" transform="translate(-163.706 -94.924)" fill="#c00020"/>
    <path id="Path_475" data-name="Path 475" d="M302.7,257.525a3.008,3.008,0,1,1,3.008-3.008,3.011,3.011,0,0,1-3.008,3.008" transform="translate(-245.706 -206.204)" fill="#b9008f"/>
  </g>
</svg>
