<svg id="Group_667" data-name="Group 667" xmlns="http://www.w3.org/2000/svg" xmlns:xlink="http://www.w3.org/1999/xlink" width="51.786" height="51.786" viewBox="0 0 51.786 51.786">
  <defs>
    <clipPath id="clip-path">
      <rect id="Rectangle_318" data-name="Rectangle 318" width="51.786" height="51.786" fill="none"/>
    </clipPath>
  </defs>
  <g id="Group_666" data-name="Group 666" clip-path="url(#clip-path)">
    <path id="Path_485" data-name="Path 485" d="M22.064,51.786A21.729,21.729,0,0,1,6,44.489c-3.7-4.025-6-9.266-6-13.68a15.748,15.748,0,0,1,1.557-6.855,12.5,12.5,0,0,1,4.519-5.18,13.064,13.064,0,0,1,5.662-1.88c2.274-.318,3.775-.528,5.914-4.222a30.032,30.032,0,0,1,7.981-9.365A16,16,0,0,1,35.18,0c6.774,0,11.3,2,13.827,6.1,2.442,3.962,2.779,9.49,2.779,14.874a30.712,30.712,0,0,1-9.347,22.047,29.585,29.585,0,0,1-20.375,8.762M35.18,2.621a13.442,13.442,0,0,0-8,2.8,27.468,27.468,0,0,0-7.259,8.562c-2.779,4.8-5.341,5.158-7.819,5.5a10.53,10.53,0,0,0-4.632,1.5c-2.946,1.848-4.849,5.7-4.849,9.816,0,3.783,2.034,8.345,5.31,11.906a19.139,19.139,0,0,0,14.134,6.45A26.948,26.948,0,0,0,40.6,41.153a28.112,28.112,0,0,0,8.562-20.177c0-5-.289-10.092-2.389-13.5-2.042-3.314-5.727-4.857-11.6-4.857" transform="translate(0 0)" fill="#c00020"/>
    <path id="Path_486" data-name="Path 486" d="M141.47,246.595a8.033,8.033,0,0,1-7.839-10.315c.619-3.006,3.4-5.476,5.057-6.952.31-.276.578-.514.779-.708a1.31,1.31,0,0,1,1.82,1.885c-.239.231-.526.486-.858.781-1.417,1.26-3.788,3.368-4.232,5.522a5.951,5.951,0,0,0,.941,5.176,5.711,5.711,0,0,0,4.331,1.99c2.989,0,6.4-.4,12.286-5.17a13.463,13.463,0,0,0,4.726-7.37,18.092,18.092,0,0,0,.264-6.733,1.31,1.31,0,1,1,2.6-.348c.924,6.889-1.128,12.59-5.936,16.488-6.551,5.31-10.628,5.755-13.936,5.755" transform="translate(-119.406 -199.817)" fill="#b9008f"/>
    <path id="Path_487" data-name="Path 487" d="M195.808,197.309a4.808,4.808,0,0,1-2.033-.365c-.625-.3-1.438-.987-3.191-5.423-.87-2.2-1.64-4.5-1.864-5.193a11.36,11.36,0,0,0-.424-1.057,6.523,6.523,0,0,1-.731-2.62,1.927,1.927,0,0,1,.752-1.494,6.021,6.021,0,0,1,2.962-.983,11.349,11.349,0,0,1,3.316.1,1.31,1.31,0,0,1-.514,2.57,8.579,8.579,0,0,0-3.836.207,8.508,8.508,0,0,0,.451,1.168,13.445,13.445,0,0,1,.52,1.311c1.182,3.7,3.015,8.281,3.762,9.079a8.639,8.639,0,0,0,3.987-.41,19.229,19.229,0,0,0,5.039-2.04,1.31,1.31,0,1,1,1.426,2.2,21.861,21.861,0,0,1-9.624,2.951" transform="translate(-167.905 -161.219)" fill="#b9008f"/>
    <path id="Path_488" data-name="Path 488" d="M209.72,324.014a1.311,1.311,0,0,1-1.2-1.836,17.685,17.685,0,0,1,3.58-4.8,1.31,1.31,0,0,1,1.8,1.908,15.238,15.238,0,0,0-2.975,3.941,1.311,1.311,0,0,1-1.2.785" transform="translate(-186.564 -283.792)" fill="#b9008f"/>
    <path id="Path_489" data-name="Path 489" d="M264.524,240.168a1.311,1.311,0,0,1-1.153-1.932,35.329,35.329,0,0,1,3.159-4.144,1.31,1.31,0,0,1,1.981,1.715,32.834,32.834,0,0,0-2.832,3.671,1.311,1.311,0,0,1-1.155.689" transform="translate(-235.624 -209.149)" fill="#b9008f"/>
    <path id="Path_490" data-name="Path 490" d="M59.642,225.88a5.078,5.078,0,0,1-3.978-1.995,9.549,9.549,0,0,0-1.17-.976c-1.289-.986-2.894-2.212-3.4-3.783a4.062,4.062,0,0,1,1.01-4.075,2.8,2.8,0,0,1,2.821-.855,22.3,22.3,0,0,1,3.324,1.6l.433.235c1.609-1.478,5.465-4.805,8.153-5.374a1.31,1.31,0,1,1,.542,2.564c-1.917.405-5.66,3.5-7.568,5.348a1.31,1.31,0,0,1-1.514.224c-.413-.213-.863-.458-1.3-.7a23.29,23.29,0,0,0-2.79-1.379,1.2,1.2,0,0,0-.474.483,1.38,1.38,0,0,0-.145,1.115c.258.794,1.609,1.827,2.5,2.511a9.137,9.137,0,0,1,1.663,1.47,2.383,2.383,0,0,0,3.1.637,1.31,1.31,0,0,1,1.228,2.315,5.162,5.162,0,0,1-2.434.631" transform="translate(-45.568 -188.549)" fill="#b9008f"/>
    <path id="Path_491" data-name="Path 491" d="M244.169,75.067a2.531,2.531,0,0,1-1.474-.429c-1.91-1.313-3.788-6.16-3.845-7.583-.007-.174-.017-.369-.027-.581a23,23,0,0,1,.471-7.046c.911-3.337,3.039-5.323,6.153-5.742,5.81-.783,12.716-.759,14.555,6.437,1.159,4.536-2.279,8.462-3.409,9.753l-.144.165a6.57,6.57,0,0,0-.786,2.579,1.311,1.311,0,0,1-1.9,1.009c-.236-.122-.444-.249-.628-.36a3.2,3.2,0,0,0-2.047-.585,11.027,11.027,0,0,0-2.664,1,11.488,11.488,0,0,1-4.251,1.38m-.036-2.623a10.98,10.98,0,0,0,3.194-1.138,10.25,10.25,0,0,1,3.758-1.243,6.08,6.08,0,0,1,2.348.408,5.842,5.842,0,0,1,1.028-2.135l.162-.186c.9-1.033,3.659-4.178,2.841-7.377a5.549,5.549,0,0,0-3.841-4.3c-1.829-.6-4.315-.659-7.825-.186-2.074.279-3.337,1.5-3.975,3.836a20.817,20.817,0,0,0-.382,6.225c.011.221.021.425.029.606a11.994,11.994,0,0,0,1,2.848,8.475,8.475,0,0,0,1.666,2.645" transform="translate(-213.725 -47.758)" fill="#001d9c"/>
  </g>
</svg>
