<?xml version="1.0" encoding="utf-8"?>
<!-- Generator: Adobe Illustrator 27.0.0, SVG Export Plug-In . SVG Version: 6.00 Build 0)  -->
<svg version="1.1" xmlns="http://www.w3.org/2000/svg" xmlns:xlink="http://www.w3.org/1999/xlink" x="0px" y="0px"
	 viewBox="0 0 400 400" style="enable-background:new 0 0 400 400;" xml:space="preserve">
<style type="text/css">
	.st0{display:none;opacity:0.25;}
	.st1{display:inline;}
	.st2{fill:none;stroke:#000000;stroke-width:0.25;stroke-linecap:round;stroke-linejoin:round;stroke-miterlimit:10;}
	.st3{fill:none;stroke:#000000;stroke-width:0.5;stroke-linecap:round;stroke-linejoin:round;stroke-miterlimit:10;}
	.st4{fill:none;stroke:#FFFFFF;stroke-width:25;stroke-linecap:round;stroke-linejoin:round;stroke-miterlimit:10;}
</style>
<g id="grid" class="st0">
	<g class="st1">
		<line class="st2" x1="374.8" y1="399.7" x2="374.8" y2="0.3"/>
		<line class="st2" x1="349.8" y1="399.7" x2="349.8" y2="0.3"/>
		<line class="st2" x1="324.8" y1="399.7" x2="324.8" y2="0.3"/>
		<line class="st2" x1="299.9" y1="399.7" x2="299.9" y2="0.3"/>
		<line class="st2" x1="274.9" y1="399.7" x2="274.9" y2="0.3"/>
		<line class="st2" x1="249.9" y1="399.7" x2="249.9" y2="0.3"/>
		<line class="st2" x1="225" y1="399.7" x2="225" y2="0.3"/>
		<line class="st2" x1="175" y1="399.7" x2="175" y2="0.3"/>
		<line class="st2" x1="150.1" y1="399.7" x2="150.1" y2="0.3"/>
		<line class="st2" x1="125.1" y1="399.7" x2="125.1" y2="0.3"/>
		<line class="st2" x1="100.1" y1="399.7" x2="100.1" y2="0.3"/>
		<line class="st2" x1="75.2" y1="399.7" x2="75.2" y2="0.3"/>
		<line class="st2" x1="50.2" y1="399.7" x2="50.2" y2="0.3"/>
		<line class="st2" x1="25.2" y1="399.7" x2="25.2" y2="0.3"/>
		<line class="st2" x1="0.2" y1="374.8" x2="399.7" y2="374.8"/>
		<line class="st2" x1="0.2" y1="349.8" x2="399.7" y2="349.8"/>
		<line class="st2" x1="0.2" y1="324.8" x2="399.7" y2="324.8"/>
		<line class="st2" x1="0.2" y1="299.9" x2="399.7" y2="299.9"/>
		<line class="st2" x1="0.2" y1="274.9" x2="399.7" y2="274.9"/>
		<line class="st2" x1="0.2" y1="249.9" x2="399.7" y2="249.9"/>
		<line class="st2" x1="0.2" y1="225" x2="399.7" y2="225"/>
		<line class="st2" x1="0.2" y1="175" x2="399.7" y2="175"/>
		<line class="st2" x1="0.2" y1="150.1" x2="399.7" y2="150.1"/>
		<line class="st2" x1="0.2" y1="125.1" x2="399.7" y2="125.1"/>
		<line class="st2" x1="0.2" y1="100.1" x2="399.7" y2="100.1"/>
		<line class="st2" x1="0.2" y1="75.2" x2="399.7" y2="75.2"/>
		<line class="st2" x1="0.2" y1="50.2" x2="399.7" y2="50.2"/>
		<line class="st2" x1="0.2" y1="25.2" x2="399.7" y2="25.2"/>
		<line class="st3" x1="399.7" y1="200" x2="0.2" y2="200"/>
		<line class="st3" x1="200" y1="399.7" x2="200" y2="0.3"/>
		<polygon class="st3" points="399.7,0.3 399.7,399.7 399.7,0.3 0.2,0.3 0.2,399.7 399.7,399.7 		"/>
		<ellipse class="st2" cx="200" cy="200" rx="199.8" ry="199.7"/>
	</g>
</g>
<g id="icons">
	<g>
		<polyline class="st4" points="200,21.8 257.9,139.1 387.4,157.9 		"/>
		<polyline class="st4" points="84.2,378.2 106.3,249.3 12.6,157.9 142.1,139.1 200,21.8 		"/>
		<polyline class="st4" points="293.7,249.3 315.8,378.2 200,317.3 84.2,378.2 		"/>
		<line class="st4" x1="387.4" y1="157.9" x2="293.7" y2="249.3"/>
	</g>
</g>
</svg>
