<svg id="Group_656" data-name="Group 656" xmlns="http://www.w3.org/2000/svg" xmlns:xlink="http://www.w3.org/1999/xlink" width="59.612" height="38.701" viewBox="0 0 59.612 38.701">
  <defs>
    <clipPath id="clip-path">
      <rect id="Rectangle_314" data-name="Rectangle 314" width="59.612" height="38.701" fill="none"/>
    </clipPath>
  </defs>
  <g id="Group_655" data-name="Group 655" clip-path="url(#clip-path)">
    <path id="Path_459" data-name="Path 459" d="M364.779,23.8a1.273,1.273,0,0,1-1.229-.947A150.038,150.038,0,0,0,358.2,6.926c-1.132-2.778-2.715-4.292-4.577-4.376a4.229,4.229,0,0,0-3.516,1.658,1.272,1.272,0,0,1-2.259-1.171,5.61,5.61,0,0,1,2.239-2.13,6.874,6.874,0,0,1,3.652-.9c2.04.093,4.879,1.2,6.817,5.958A152.834,152.834,0,0,1,366.01,22.2a1.273,1.273,0,0,1-1.231,1.6" transform="translate(-312.319 -0.001)" fill="#b9008f"/>
    <path id="Path_460" data-name="Path 460" d="M59.017,23.8a1.273,1.273,0,0,1-1.231-1.6A153.227,153.227,0,0,1,63.238,5.965C65.177,1.209,68.016.1,70.055.007a6.882,6.882,0,0,1,3.652.9,5.609,5.609,0,0,1,2.239,2.13,1.272,1.272,0,0,1-2.259,1.171,4.232,4.232,0,0,0-3.516-1.658c-1.862.085-3.444,1.6-4.577,4.376a150.325,150.325,0,0,0-5.349,15.927,1.273,1.273,0,0,1-1.229.947" transform="translate(-51.867 0)" fill="#b9008f"/>
    <path id="Path_461" data-name="Path 461" d="M51.482,190.969a10.724,10.724,0,1,1,10.726-10.725,10.738,10.738,0,0,1-10.726,10.725m0-18.9a8.18,8.18,0,1,0,8.182,8.179,8.19,8.19,0,0,0-8.182-8.179" transform="translate(-36.606 -152.268)" fill="#001d9c"/>
    <path id="Path_462" data-name="Path 462" d="M98.612,232.344a1.272,1.272,0,0,1-1.272-1.272,4.972,4.972,0,0,1,4.969-4.964,1.272,1.272,0,0,1,0,2.544,2.425,2.425,0,0,0-2.424,2.42,1.272,1.272,0,0,1-1.272,1.272" transform="translate(-87.433 -203.095)" fill="#c00020"/>
    <path id="Path_463" data-name="Path 463" d="M344.857,190.969a10.724,10.724,0,1,1,10.726-10.725,10.738,10.738,0,0,1-10.726,10.725m0-18.9a8.18,8.18,0,1,0,8.182,8.179,8.19,8.19,0,0,0-8.182-8.179" transform="translate(-300.123 -152.268)" fill="#001d9c"/>
    <path id="Path_464" data-name="Path 464" d="M391.987,232.344a1.272,1.272,0,0,1-1.272-1.272,4.972,4.972,0,0,1,4.969-4.964,1.272,1.272,0,0,1,0,2.544,2.425,2.425,0,0,0-2.424,2.42,1.272,1.272,0,0,1-1.272,1.272" transform="translate(-350.95 -203.095)" fill="#c00020"/>
    <path id="Path_465" data-name="Path 465" d="M226.524,219.977a1.272,1.272,0,0,1-.942-2.127,8.838,8.838,0,0,1,13.1,0,1.272,1.272,0,0,1-1.884,1.71,6.294,6.294,0,0,0-9.332,0,1.269,1.269,0,0,1-.942.417" transform="translate(-202.327 -193.069)" fill="#001d9c"/>
    <path id="Path_466" data-name="Path 466" d="M525.364,264.929h-4.151a1.272,1.272,0,0,1,0-2.544h4.151a1.272,1.272,0,0,1,0,2.544" transform="translate(-467.024 -235.681)" fill="#001d9c"/>
    <path id="Path_467" data-name="Path 467" d="M5.42,264.929H1.272a1.272,1.272,0,0,1,0-2.544H5.42a1.272,1.272,0,0,1,0,2.544" transform="translate(0 -235.681)" fill="#001d9c"/>
  </g>
</svg>
