<svg id="Group_669" data-name="Group 669" xmlns="http://www.w3.org/2000/svg" xmlns:xlink="http://www.w3.org/1999/xlink" width="60" height="47.272" viewBox="0 0 60 47.272">
  <defs>
    <clipPath id="clip-path">
      <rect id="Rectangle_319" data-name="Rectangle 319" width="60" height="47.272" fill="none"/>
    </clipPath>
  </defs>
  <g id="Group_668" data-name="Group 668" clip-path="url(#clip-path)">
    <path id="Path_492" data-name="Path 492" d="M7.813,109.706H1.358a1.358,1.358,0,1,1,0-2.715H7.813a1.358,1.358,0,1,1,0,2.715" transform="translate(0 -95.372)" fill="#b9008f"/>
    <path id="Path_493" data-name="Path 493" d="M18.41,74.042H13.246a1.358,1.358,0,1,1,0-2.715H18.41a1.358,1.358,0,1,1,0,2.715" transform="translate(-10.597 -63.581)" fill="#b9008f"/>
    <path id="Path_494" data-name="Path 494" d="M17.862,145.37H12.632a1.358,1.358,0,0,1,0-2.715h5.231a1.358,1.358,0,0,1,0,2.715" transform="translate(-10.05 -127.163)" fill="#b9008f"/>
    <path id="Path_495" data-name="Path 495" d="M92.995,271.994h-5.84a3.944,3.944,0,0,1-3.94-3.94v-2.582a3.944,3.944,0,0,1,3.94-3.94h2.473a1.357,1.357,0,1,1,0,2.715H87.155a1.226,1.226,0,0,0-1.225,1.225v2.582a1.226,1.226,0,0,0,1.225,1.225h5.84a1.358,1.358,0,0,1,0,2.715" transform="translate(-74.178 -233.13)" fill="#b9008f"/>
    <path id="Path_496" data-name="Path 496" d="M24.237,185.3a12.261,12.261,0,0,1-4.272-.748c-2.332-.877-4.021-2.8-5.018-5.719a22.365,22.365,0,0,1-1.026-7.171c0-6.646-.107-10.054-2.505-14.852a1.358,1.358,0,0,1,2.428-1.214c2.668,5.336,2.792,9.178,2.792,16.066,0,3.263.557,8.947,4.284,10.349a9.213,9.213,0,0,0,7.381-.418,2.639,2.639,0,0,0,1.387-1.984c.069-.7-.991-2.072-1.926-3.28-1.4-1.814-3-3.869-3.5-6.391-.6-2.995.562-5.947,3.44-8.774a1.358,1.358,0,0,1,1.9,1.937c-2.214,2.176-3.091,4.239-2.68,6.308.377,1.9,1.76,3.682,2.981,5.258,1.425,1.84,2.655,3.429,2.482,5.206a5.284,5.284,0,0,1-2.654,4.025,10.591,10.591,0,0,1-5.5,1.4" transform="translate(-10.048 -138.03)" fill="#c00020"/>
    <path id="Path_497" data-name="Path 497" d="M443.492,127.637a4.778,4.778,0,0,1-3.2-1.533,1.358,1.358,0,1,1,1.844-1.993c.6.559,1.11.846,1.421.811a3.116,3.116,0,0,0,1.137-.69c1.232-.958,3.293-2.563,6.785-.257a1.358,1.358,0,0,1-1.5,2.266c-1.866-1.232-2.49-.747-3.622.134a4.705,4.705,0,0,1-2.864,1.262" transform="translate(-392.083 -109.455)" fill="#b9008f"/>
    <path id="Path_498" data-name="Path 498" d="M443.492,78.954a4.778,4.778,0,0,1-3.2-1.533,1.358,1.358,0,1,1,1.844-1.993c.6.559,1.11.846,1.421.811a3.117,3.117,0,0,0,1.137-.69c1.232-.958,3.293-2.563,6.785-.257a1.358,1.358,0,0,1-1.5,2.266c-1.866-1.232-2.49-.747-3.622.134a4.705,4.705,0,0,1-2.864,1.262" transform="translate(-392.083 -66.059)" fill="#b9008f"/>
    <path id="Path_499" data-name="Path 499" d="M12.977,25.954A12.977,12.977,0,0,1,12.977,0C17.73,0,23.343,1.834,27.853,3.307c2.923.955,5.684,1.857,7.072,1.857a1.358,1.358,0,0,1,1.358,1.358v12.91a1.358,1.358,0,0,1-1.358,1.358c-1.3,0-3.6.793-6.259,1.711-4.455,1.538-10,3.453-15.688,3.453m0-23.239a10.262,10.262,0,0,0,0,20.524c5.234,0,10.539-1.832,14.8-3.3a41.389,41.389,0,0,1,5.788-1.729V7.753A50.263,50.263,0,0,1,27.01,5.888C22.683,4.474,17.3,2.715,12.977,2.715" fill="#001d9c"/>
    <path id="Path_500" data-name="Path 500" d="M316.894,44.564a1.355,1.355,0,0,1-.5-.1l-6.455-2.582a1.358,1.358,0,1,1,1.008-2.521l5.4,2.162a15.766,15.766,0,0,0,1.771-7.356,14.193,14.193,0,0,0-1.793-7.348l-5.382,2.153a1.358,1.358,0,1,1-1.008-2.521l6.455-2.582a1.358,1.358,0,0,1,1.65.532,16.913,16.913,0,0,1,2.794,9.766,17.358,17.358,0,0,1-2.845,9.84,1.357,1.357,0,0,1-1.1.555" transform="translate(-275.515 -21.193)" fill="#c00020"/>
  </g>
</svg>
